<?xml version="1.0" encoding="utf-8"?>
<!-- Generator: Adobe Illustrator 22.1.0, SVG Export Plug-In . SVG Version: 6.00 Build 0)  -->
<svg version="1.1" id="Capa_1" xmlns="http://www.w3.org/2000/svg" xmlns:xlink="http://www.w3.org/1999/xlink" x="0px" y="0px"
	 viewBox="0 0 512 512" style="enable-background:new 0 0 512 512;" xml:space="preserve">
<g>
	<g>
		<path d="M508.3,485.1c-37.5-52.1-92.1-88.8-153.5-103.7c-4.5,7.2-9.9,14-16.2,20.4c-20.8,20.8-48.3,32.2-77.6,32.2
			s-56.9-11.3-77.6-32.2c-6.8-6.8-12.6-14-17.2-22.2c-25.7,5.4-51,14.5-74,27.2c-34.8,19-65.4,46.2-88.5,78.4L1,489.1v21.7h510
			v-21.7L508.3,485.1z M361.2,478.7H150.8v-29.9h209.9v29.9H361.2z"/>
		<g>
			<path d="M281.7,247.2c0,2.3,0.5,5,0,7.2c-0.5,24-9.9,46.2-27.1,63.4l-2.7,2.7l-19.4,19l-21.2-17.2l-27.1-22.2
				c-2.3,7.7-3.6,15.9-3.6,24c0,43.9,35.7,79.7,79.9,79.7s79.9-35.8,79.9-79.7C340.8,287.1,316,256.3,281.7,247.2L281.7,247.2z"/>
		</g>
		<g>
			<path d="M341.8,77.8L330,67.4c-29.8-26.3-61.8-48.9-96.6-67.5H1v42.6l89.8,57.1l17.6,64.8c8.1,29.4,24.8,55.7,48.7,74.7l74,60.3
				l2.7-2.7c23.5-23.6,24.4-61.6,1.4-85.6l-1.8-2.3c-16.2-17.2-18.5-43-6.3-63l19-30.8l46.9,31.3c25.7,17.2,37.5,48.5,28.9,78.4
				l-1.8,6.8c6.8,4.1,13.1,9.5,19,14.9c13.1,13.1,22.6,29.4,28,47.1c1.4-2.3,2.7-4.5,3.6-7.2c4.1-13.1,9.5-29.4,15.3-46.7
				C404,181.5,386.9,118.6,341.8,77.8L341.8,77.8z"/>
		</g>
	</g>
</g>
</svg>
