<?xml version="1.0" encoding="utf-8"?>
<!-- Generator: Adobe Illustrator 22.1.0, SVG Export Plug-In . SVG Version: 6.00 Build 0)  -->
<svg version="1.1" id="Layer_1" xmlns="http://www.w3.org/2000/svg" xmlns:xlink="http://www.w3.org/1999/xlink" x="0px" y="0px"
	 viewBox="0 0 512 512" style="enable-background:new 0 0 512 512;" xml:space="preserve">
<path d="M497.3,223.1C497.3,223.1,497.3,223.1,497.3,223.1L288.8,17.6C279.9,8.8,268.1,4,255.5,4c-12.6,0-24.4,4.8-33.3,13.6
	L13.9,223c-0.1,0.1-0.1,0.1-0.2,0.2c-18.2,18.1-18.2,47.4,0.1,65.5c8.4,8.2,19.4,13,31.2,13.5c0.5,0,1,0.1,1.5,0.1h8.3v151.2
	c0,29.9,24.7,54.3,55.1,54.3h81.6c8.3,0,15-6.6,15-14.8V374.4c0-13.7,11.3-24.8,25.1-24.8h48.1c13.9,0,25.1,11.1,25.1,24.8V493
	c0,8.2,6.7,14.8,15,14.8h81.6c30.4,0,55.1-24.3,55.1-54.3V302.3h7.7c12.6,0,24.4-4.8,33.3-13.6C515.6,270.6,515.6,241.2,497.3,223.1
	z"/>
</svg>
